<svg width="648" height="751" viewBox="0 0 648 751" fill="none" xmlns="http://www.w3.org/2000/svg">
<g clip-path="url(#clip0)">
<path d="M244.432 509.063L244.073 507.98L243.602 506.784L243.124 505.708L242.765 504.626L242.294 503.55L241.817 502.354L241.457 501.271L240.978 500.195L240.509 499.12L240.149 498.038L239.67 496.842L239.32 495.766L238.841 494.683L238.362 493.607L238.005 492.531L237.533 491.33L237.056 490.252L236.697 489.178L236.218 488.095L235.748 486.899L235.389 485.816L234.91 484.74L234.44 485.816L234.082 486.899L233.604 488.095L233.125 489.178L232.773 490.252L232.296 491.33L231.817 492.531L231.346 493.607L230.986 494.683L230.509 495.766L230.03 496.842L229.678 498.038L229.201 499.12L228.722 500.195L228.365 501.271L227.893 502.354L227.414 503.55L226.937 504.626L226.586 505.708L226.108 506.784L225.629 507.98L225.27 509.063L224.8 510.139H244.909L244.432 509.063Z" fill="white"/>
<path d="M293.047 227.722C293.047 239.24 287.731 244.591 276.678 244.591H258.663V138.463H276.678C287.731 138.463 293.047 143.808 293.047 155.324V227.722Z" fill="white"/>
<path fill-rule="evenodd" clip-rule="evenodd" d="M588.396 -0.000976562H58.7707C15.8427 -0.000976562 0 15.8417 0 58.7897V577.024C0 581.884 0.195992 586.399 0.625326 590.582C0.706741 591.363 0.782651 592.142 0.858448 592.919L0.858603 592.921C1.69264 601.48 2.51346 609.903 10.5053 619.383C11.3573 620.396 20.2587 627.02 20.2587 627.02C21.0744 627.42 21.846 627.803 22.5916 628.172L22.6092 628.181L22.6717 628.211L22.6975 628.224L22.7094 628.23C26.2879 630.003 29.2845 631.487 33.716 633.271L294.511 742.535C308.049 748.742 313.711 751.16 323.544 750.966V750.967H323.621V750.966C333.455 751.16 339.116 748.742 352.656 742.535L613.449 633.271C617.876 631.49 620.87 630.007 624.443 628.237L625.581 627.674C626.011 627.461 626.453 627.243 626.908 627.02C626.908 627.02 635.809 620.396 636.66 619.383C644.652 609.903 645.473 601.48 646.307 592.921C646.359 592.383 646.412 591.844 646.466 591.304C646.49 591.063 646.515 590.823 646.54 590.582C646.969 586.399 647.167 581.884 647.167 577.024V58.7897C647.167 15.8417 631.323 -0.000976562 588.396 -0.000976562ZM552.921 521.016L552.801 522.212L552.682 523.526L552.442 524.722L552.085 525.916L551.853 526.992L551.493 528.188L551.016 529.264L550.537 530.222L550.066 531.296L548.872 533.21L548.161 534.166L547.562 535.122L546.853 535.958L546.016 536.795L545.305 537.512L544.35 538.35L543.52 539.067L542.564 539.784L541.614 540.374L540.665 541.091L539.589 541.688L538.52 542.167L537.452 542.764L536.256 543.243L535.068 543.722L533.88 544.079L532.692 544.439L531.616 544.796L530.428 545.036L528.29 545.514L527.094 545.754L525.905 545.872L524.837 545.992L523.641 546.112L522.334 546.232L521.145 546.351H516.146L514.957 546.232H513.65L511.266 545.992L509.958 545.872L508.77 545.634L507.582 545.514L506.386 545.275L505.197 545.036L504.009 544.796L502.821 544.558L501.626 544.2L500.557 543.96L498.18 543.243L497.105 542.764L495.917 542.406L494.848 542.048L493.658 541.57L492.584 541.091L491.514 540.612L490.445 540.023L489.37 539.544L488.301 538.946L487.352 538.35L486.276 537.751L485.326 537.154L484.37 536.556L482.472 535.122L481.516 534.404L480.565 533.687L479.729 532.97L478.78 532.134L479.497 531.178L480.326 530.34L481.044 529.383L481.874 528.427L482.592 527.591L483.301 526.635L484.138 525.678L484.848 524.842L485.685 523.886L486.396 523.048L487.232 522.092L487.942 521.135L488.66 520.299L489.489 519.343L490.206 518.386L491.036 517.55L491.753 516.594L492.702 517.311L493.772 518.028L494.728 518.746L495.797 519.463L496.753 520.06L497.822 520.776L498.77 521.375L499.848 521.852L500.796 522.451L501.865 522.93L502.941 523.407L504.009 523.886L505.08 524.244L506.154 524.722L508.532 525.439L509.6 525.798L513.172 526.515L514.48 526.635L515.674 526.874H516.864L518.17 526.992H520.786L522.094 526.874L523.29 526.635L524.358 526.395L525.428 526.156L526.384 525.798L527.214 525.32L528.17 524.603L528.88 523.766L529.358 522.808L529.718 521.734L529.836 520.538V520.299L529.718 518.864L529.24 517.668L528.641 516.832L527.812 516.115L526.854 515.398L525.905 514.92L524.837 514.442L523.641 513.963L522.214 513.367L521.384 513.127L520.436 512.888L519.36 512.528L518.29 512.29L517.102 511.931L515.906 511.692L514.6 511.334L513.41 511.095L512.102 510.736L510.914 510.498L509.718 510.139L508.532 509.899L507.342 509.54L506.266 509.183L505.08 508.943L502.941 508.226L501.865 507.867L500.557 507.388L499.369 506.91L496.985 505.954L495.917 505.356L494.728 504.759L493.772 504.162L492.702 503.564L491.753 502.847L490.797 502.25L489.968 501.531L489.132 500.695L488.301 499.858L487.584 499.02L486.874 498.184L486.276 497.348L485.685 496.391L485.088 495.316L484.609 494.487L484.25 493.53L483.9 492.454L483.541 491.498L483.301 490.302L483.062 489.226L482.942 488.031L482.824 486.835L482.704 485.522V482.771L482.824 481.576L482.942 480.5L483.062 479.304L483.541 477.154L483.9 476.076L484.138 475.002L484.609 473.926L485.565 471.775L486.157 470.698L486.753 469.623L487.464 468.666L488.182 467.71L489.012 466.754L489.848 465.918L490.678 464.96L491.634 464.123L492.464 463.526L493.42 462.808L494.37 462.091L495.318 461.494L496.394 460.896L497.464 460.418L498.532 459.82L499.608 459.343L500.796 458.983L501.984 458.506L503.06 458.147L504.009 457.907L506.154 457.43L507.342 457.191L508.412 456.951L511.984 456.592L513.172 456.474H518.29L519.598 456.592L520.906 456.712H522.094L523.409 456.832L524.597 457.071L525.905 457.191L527.094 457.43L528.17 457.668L529.358 457.907L530.546 458.147L531.616 458.386L532.81 458.744L533.88 459.103L534.949 459.343L536.144 459.82L537.213 460.179L539.35 461.135L540.545 461.614L541.614 462.211L542.564 462.69L543.64 463.287L544.709 463.884L545.658 464.483L546.733 465.2L547.684 465.796L548.64 466.515L550.537 467.948L549.828 468.906L549.23 469.862L548.52 470.818L547.802 471.775L547.093 472.85L546.494 473.806L545.777 474.763L545.066 475.719L544.47 476.675L543.758 477.632L543.042 478.588L542.444 479.544L541.734 480.62L541.016 481.576L540.306 482.532L539.709 483.488L538.998 484.444L538.042 483.728L536.974 483.13L536.024 482.532L535.068 481.815L534 481.338L533.042 480.739L531.974 480.26L531.025 479.783L529.949 479.304L529 478.827L527.932 478.468L526.976 477.99L525.666 477.632L524.478 477.272L523.29 476.915L520.906 476.436L519.718 476.196L518.53 476.076L517.334 475.958L516.266 475.838H513.65L512.342 476.076L511.146 476.316L510.078 476.555L509.129 477.034L508.292 477.511L507.222 478.468L506.505 479.544L506.036 480.62L505.914 481.815V482.055L506.036 483.608L506.625 484.923L507.104 485.64L507.933 486.478L509.009 487.075L509.958 487.672L511.146 488.151L512.461 488.63L513.889 489.107L514.838 489.346L515.788 489.704L516.864 489.943L517.932 490.302L519.12 490.542L521.744 491.258L523.052 491.618L524.358 491.856L525.546 492.215L526.854 492.574L528.05 492.812L530.428 493.53L531.496 493.888L532.692 494.247L534.829 494.964L536.144 495.435L537.332 496.034L538.52 496.511L539.709 497.108L540.785 497.707L541.854 498.304L542.802 498.902L543.758 499.619L544.709 500.216L545.658 501.054L546.614 501.89L547.444 502.847L548.28 503.683L548.99 504.64L549.708 505.715L550.298 506.671L550.897 507.748L551.374 508.704L551.733 509.779L552.085 510.855L552.324 511.931L552.801 514.323L552.921 515.518L553.041 516.832V519.702L552.921 521.016ZM401.272 544.918V457.907H470.054V477.632H423.997V491.856H465.413V510.378H423.997V525.199H470.652V544.918H401.272ZM360.733 544.918V493.466L360.137 494.422L359.426 495.506L358.828 496.462L358.118 497.419L357.521 498.494L356.802 499.451L356.213 500.407L355.614 501.49L354.905 502.446L354.306 503.402L353.59 504.359L353 505.442L352.282 506.398L351.692 507.354L351.093 508.43L350.376 509.392L349.785 510.35L349.068 511.424L348.478 512.382L347.761 513.338L347.17 514.42L346.572 515.378L345.856 516.334L345.265 517.41L344.548 518.372L343.957 519.328L343.24 520.286L342.641 521.36L342.05 522.323L341.334 523.28L340.744 524.356L340.026 525.312L339.429 526.268L338.718 527.352L338.121 528.308H337.649L336.933 527.232L336.334 526.268L335.624 525.192L335.026 524.236L334.316 523.162L333.718 522.198L333.009 521.122L332.41 520.164L331.693 519.09L331.102 518.134L330.385 517.05L329.796 516.094L329.078 515.018L328.48 514.062L327.77 512.979L327.172 512.023L326.462 510.947L325.745 509.991L325.148 508.908L324.437 507.952L323.84 506.876L323.129 505.92L322.532 504.836L321.821 503.88L321.224 502.804L320.506 501.848L319.916 500.772L319.198 499.808L318.608 498.734L317.89 497.776L317.293 496.7L316.584 495.746L315.984 494.662L315.274 493.706V544.918H292.661V457.907H317.061L317.652 458.864L318.249 459.939L318.958 460.888L319.557 461.964L320.154 462.92L320.745 463.998L321.342 464.946L322.054 466.023L322.65 466.979L323.249 467.935L323.84 469.003L324.437 469.96L325.148 471.035L325.745 471.992L326.342 473.06L326.933 474.016L327.65 474.972L328.249 476.043L328.838 476.998L329.436 478.074L330.028 479.031L330.745 480.099L331.342 481.056L331.932 482.131L332.53 483.08L333.121 484.036L333.838 485.112L334.436 486.07L335.026 487.146L335.624 488.095L336.214 489.171L336.933 490.127L337.53 491.195L338.121 492.152L338.718 491.195L339.316 490.127L340.026 489.171L340.622 488.095L341.214 487.146L341.812 486.07L342.522 485.112L343.12 484.036L343.718 483.08L344.308 482.131L345.025 481.056L345.616 480.099L346.214 479.031L346.81 478.074L347.521 476.998L348.118 476.043L348.717 474.972L349.306 474.016L349.906 473.06L350.616 471.992L351.213 471.035L351.81 469.96L352.402 469.003L353.118 467.935L353.71 466.979L354.306 466.023L354.905 464.946L355.614 463.998L356.213 462.92L356.802 461.964L357.401 460.888L358.118 459.939L358.709 458.864L359.306 457.907H383.698V544.918H360.733ZM258.474 544.918L258.002 543.84L257.644 542.764L257.166 541.688L256.688 540.494L256.336 539.424L255.38 537.274L255.028 536.198L254.55 535.122L254.072 534.046L253.714 532.97L253.242 531.775L252.764 530.699L252.405 529.623L251.926 528.547H217.774L217.304 529.623L216.945 530.699L216.466 531.775L215.989 532.97L215.637 534.046L215.16 535.122L214.681 536.198L214.322 537.274L213.852 538.35L213.373 539.424L213.014 540.494L212.542 541.688L212.065 542.764L211.706 543.84L211.228 544.918H187.194L187.665 543.84L188.144 542.764L188.621 541.688L189.093 540.494L189.452 539.424L189.93 538.35L190.408 537.274L190.878 536.198L191.357 535.122L191.836 533.926L192.306 532.85L192.785 531.775L193.142 530.699L193.621 529.623L194.092 528.547L194.57 527.352L195.048 526.276L195.52 525.199L195.998 524.124L196.476 523.048L196.834 521.972L197.305 520.776L198.262 518.626L198.733 517.55L199.69 515.398L200.161 514.202L200.52 513.127L200.998 512.051L201.476 510.975L201.948 509.899L202.425 508.823L202.902 507.628L203.374 506.552L203.852 505.476L204.21 504.4L204.689 503.326L205.16 502.25L205.638 501.054L206.117 499.978L206.588 498.902L207.065 497.826L207.544 496.751L207.902 495.674L208.374 494.606L208.852 493.41L209.329 492.335L209.801 491.258L210.278 490.182L210.757 489.107L211.228 488.031L211.586 486.835L212.065 485.76L212.542 484.684L213.014 483.608L213.493 482.532L213.97 481.456L214.442 480.26L214.92 479.186L215.278 478.11L215.756 477.034L216.228 475.958L216.705 474.882L217.184 473.687L217.654 472.611L218.612 470.459L218.962 469.384L219.441 468.307L219.92 467.112L220.398 466.036L220.869 464.96L221.348 463.884L221.825 462.808L222.296 461.734L222.656 460.538L223.133 459.462L223.612 458.386L224.082 457.31H246.098L246.576 458.386L247.054 459.462L247.526 460.538L248.004 461.734L248.362 462.808L248.833 463.884L249.312 464.96L249.789 466.036L250.268 467.112L250.738 468.307L251.696 470.459L252.046 471.535L253.004 473.687L253.482 474.882L253.953 475.958L254.43 477.034L254.909 478.11L255.38 479.186L255.738 480.26L256.216 481.456L256.688 482.532L257.166 483.608L257.644 484.684L258.122 485.76L258.593 486.835L259.07 488.031L259.43 489.107L259.901 490.182L261.336 493.41L261.806 494.606L262.285 495.674L262.762 496.751L263.114 497.826L263.592 498.902L264.07 499.978L264.542 501.054L265.02 502.25L265.977 504.4L266.448 505.476L266.806 506.552L267.284 507.628L267.756 508.823L268.233 509.899L268.712 510.975L269.189 512.051L269.661 513.127L270.14 514.202L270.497 515.398L270.969 516.474L271.446 517.55L271.925 518.626L272.396 519.702L272.874 520.776L273.353 521.972L273.832 523.048L274.182 524.124L275.14 526.276L275.61 527.352L276.088 528.547L277.044 530.699L277.514 531.775L277.874 532.85L278.353 533.926L278.824 535.122L279.778 537.274L280.25 538.35L280.728 539.424L281.206 540.494L281.566 541.688L282.036 542.764L282.514 543.84L282.992 544.918H258.474ZM177.548 533.806L176.592 534.523L175.761 535.122L174.805 535.839L173.856 536.436L172.906 537.154L171.95 537.751L171.001 538.35L169.925 538.946L167.786 540.142L166.712 540.612L165.642 541.211L164.454 541.688L163.386 542.167L162.19 542.644L161.122 543.123L160.052 543.482L158.977 543.84L157.908 544.2L156.72 544.558L155.652 544.918L154.456 545.156L153.386 545.395L152.198 545.634L151.004 545.872L149.814 545.992L148.506 546.112L147.318 546.232L146.01 546.351L144.814 546.471L143.508 546.59H138.388L137.2 546.471L135.892 546.351L134.704 546.232L132.32 545.992L129.942 545.514L128.874 545.275L127.68 545.036L126.61 544.678L125.422 544.439L124.346 544.079L123.277 543.602L122.208 543.243L121.021 542.764L119.945 542.287L118.876 541.81L117.808 541.331L116.73 540.734L115.782 540.142L114.713 539.544L113.757 538.946L112.808 538.35L111.852 537.631L109.952 536.198L109.116 535.48L108.286 534.763L107.449 533.926L106.62 533.21L105.782 532.372L104.953 531.535L104.236 530.699L103.525 529.743L102.808 528.906L102.21 527.95L101.5 526.992L100.904 526.038L100.312 525.08L99.7143 524.004L99.117 523.048L98.6463 521.972L98.1676 520.896L97.6903 519.82L97.2183 518.746L96.8597 517.79L96.381 516.712L96.1423 515.636L95.7903 514.562L95.5516 513.367L95.193 512.29L94.9543 511.095L94.8343 510.019L94.5943 508.823L94.477 507.748L94.3556 506.552L94.2437 505.356L94.125 504.162V500.216L94.2437 498.902V497.707L94.3556 496.511L94.477 495.196L94.7157 494.008L94.8343 492.812L95.073 491.736L95.4316 490.542L95.6716 489.346L96.0223 488.27L96.381 487.075L96.7397 485.999L97.2183 484.803L97.6903 483.728L98.1676 482.652L98.6463 481.576L99.117 480.5L99.7143 479.424L100.312 478.468L100.904 477.511L101.5 476.555L102.098 475.599L102.808 474.643L103.525 473.687L104.236 472.731L104.953 471.892L105.782 471.056L106.5 470.219L108.166 468.546L108.996 467.83L109.952 466.992L110.782 466.275L111.732 465.558L112.688 464.96L113.637 464.243L114.594 463.646L115.542 463.048L116.612 462.45L117.688 461.852L118.756 461.255L119.825 460.776L120.9 460.299L122.089 459.7L123.038 459.343L124.226 458.983L125.304 458.506L126.372 458.266L127.44 457.907L128.634 457.668L129.704 457.31L130.892 457.071L132.081 456.951L133.276 456.712L138.037 456.234H143.148L145.772 456.474H146.96L148.148 456.592L149.456 456.832L150.532 456.951L151.72 457.191L152.909 457.43L153.984 457.668L156.122 458.147L157.198 458.506L158.266 458.744L159.216 459.103L160.292 459.462L161.361 459.939L162.429 460.418L163.505 460.896L164.574 461.494L165.642 461.972L166.6 462.57L167.668 463.167L168.617 463.764L169.693 464.363L170.642 465.079L171.592 465.678L172.548 466.395L173.497 467.112L174.453 467.948L175.402 468.666L174.685 469.623L173.856 470.459L173.138 471.415L172.309 472.371L171.592 473.328L170.881 474.164L170.044 475.12L169.334 476.076L168.617 476.915L167.786 477.871L167.07 478.827L166.24 479.783L165.522 480.62L164.813 481.576L163.977 482.532L163.265 483.488L162.429 484.326L161.718 485.282L160.762 484.564L159.813 483.728L158.857 483.13L157.908 482.412L156.958 481.815L155.052 480.62L153.984 480.022L153.028 479.544L152.078 479.066L151.122 478.707L148.985 477.99L147.909 477.751L146.721 477.511L145.533 477.272L144.344 477.154L143.036 477.034L141.721 476.915H139.225L138.037 477.034L136.961 477.154L135.773 477.392L134.704 477.632L133.628 477.99L132.56 478.348L131.49 478.827L130.421 479.304L129.465 479.902L128.517 480.5L127.56 481.099L126.73 481.815L125.893 482.532L125.064 483.25L124.346 484.086L123.517 484.923L122.8 485.879L122.208 486.716L121.61 487.672L121.021 488.748L120.422 489.704L119.945 490.78L119.586 491.856L119.114 492.932L118.756 494.127L118.517 495.316L118.278 496.391L118.038 497.707L117.92 498.902L117.808 500.096V502.847L117.92 504.042L118.038 505.118L118.158 506.314L118.876 509.54L119.234 510.616L119.586 511.572L120.065 512.767L120.542 513.844L121.133 514.92L122.328 516.832L123.038 517.79L123.756 518.626L124.585 519.463L125.304 520.299L126.132 521.016L127.089 521.734L128.038 522.451L128.986 523.048L129.942 523.646L132.081 524.603L133.156 525.08L135.533 525.798L137.917 526.276L139.105 526.395L140.413 526.515H143.148L145.772 526.276L146.96 526.156L148.148 525.916L149.344 525.678L150.532 525.32L151.6 525.08L152.67 524.603L153.626 524.124L154.694 523.646L155.53 523.168L156.481 522.57V511.692H139.105V494.247H178.377V533.09L177.548 533.806ZM190.853 261.037H139.275V347.834H193.722V387.731H95.4766V99.7966H192.906V139.693H139.275V221.141H190.853V261.037ZM508.709 269.679V334.671C508.709 346.19 503.385 351.534 492.339 351.534H484.147C472.686 351.534 467.362 346.19 467.362 334.671V152.855C467.362 141.338 472.686 135.994 484.147 135.994H491.516C502.569 135.994 507.893 141.338 507.893 152.855V209.214H550.87V150.387C550.87 114.604 533.677 97.327 498.07 97.327H476.779C441.171 97.327 423.562 115.012 423.562 150.802V336.724C423.562 372.515 441.171 390.199 476.779 390.199H498.477C534.093 390.199 551.692 372.515 551.692 336.724V269.679H508.709ZM400.415 387.732H356.609V99.7962H400.415V387.732ZM283.633 99.7962H214.863V387.732H258.663V283.25H283.633C319.247 283.25 336.847 265.566 336.847 229.783V153.271C336.847 117.482 319.247 99.7962 283.633 99.7962ZM449.543 648.083H198.805L321.562 690.288L449.543 648.083Z" fill="white"/>
</g>
<defs>
<clipPath id="clip0">
<rect width="647.167" height="750.977" fill="white"/>
</clipPath>
</defs>
</svg>
